HIERARCHY
ROOT Hips
{
  OFFSET 51.1864 95.611 8.35856
  CHANNELS 6 Xposition Yposition Zposition Zrotation Xrotation Yrotation
  JOINT spine
  {
    OFFSET 0 7.96568 0.458067
    CHANNELS 3 Zrotation Xrotation Yrotation
    JOINT spine1
    {
      OFFSET 0 10.2431 0
      CHANNELS 3 Zrotation Xrotation Yrotation
      JOINT spine2
      {
        OFFSET 0 9.81475 0
        CHANNELS 3 Zrotation Xrotation Yrotation
        JOINT Neck
        {
          OFFSET 0 25.1986 1.20138
          CHANNELS 3 Zrotation Xrotation Yrotation
          JOINT Head
          {
            OFFSET 0 7.61315 0
            CHANNELS 3 Zrotation Xrotation Yrotation
            End Site
            {
              OFFSET 0 18.4281 -6.07733
            }
          }
        }
        JOINT RightShoulder
        {
          OFFSET -4.1327 10.5992 -0.575451
          CHANNELS 3 Zrotation Xrotation Yrotation
          JOINT RightArm
          {
            OFFSET 0 13.9018 0
            CHANNELS 3 Zrotation Xrotation Yrotation
            JOINT RightArmRoll
            {
              OFFSET 0 7.01789 0
              CHANNELS 3 Zrotation Xrotation Yrotation
              JOINT RightForeArm
              {
                OFFSET 0 20.4406 0
                CHANNELS 3 Zrotation Xrotation Yrotation
                JOINT RightForeArmRoll
                {
                  OFFSET 0 7.87516 0
                  CHANNELS 3 Zrotation Xrotation Yrotation
                  JOINT RightHand
                  {
                    OFFSET 0 15.8037 0
                    CHANNELS 3 Zrotation Xrotation Yrotation
                    End Site
                    {
                      OFFSET 0 0 0
                    }
                  }
                }
              }
            }
          }
        }
        JOINT LeftShoulder
        {
          OFFSET 4.1327 10.5992 -0.575451
          CHANNELS 3 Zrotation Xrotation Yrotation
          JOINT LeftArm
          {
            OFFSET 0 13.9018 0
            CHANNELS 3 Zrotation Xrotation Yrotation
            JOINT LeftArmRoll
            {
              OFFSET 0 7.01789 0
              CHANNELS 3 Zrotation Xrotation Yrotation
              JOINT LeftForeArm
              {
                OFFSET 0 20.4406 0
                CHANNELS 3 Zrotation Xrotation Yrotation
                JOINT LeftForeArmRoll
                {
                  OFFSET 0 7.87516 0
                  CHANNELS 3 Zrotation Xrotation Yrotation
                  JOINT LeftHand
                  {
                    OFFSET 0 15.8037 0
                    CHANNELS 3 Zrotation Xrotation Yrotation
                    End Site
                    {
                      OFFSET 0 0 0
                    }
                  }
                }
              }
            }
          }
        }
      }
    }
  }
  JOINT RightUpLeg
  {
    OFFSET -7.06048 -1.2947 -1.0861
    CHANNELS 3 Zrotation Xrotation Yrotation
    JOINT RightUpLegRoll
    {
      OFFSET 0 18.5308 0
      CHANNELS 3 Zrotation Xrotation Yrotation
      JOINT RightLeg
      {
        OFFSET 0 -22.9476 0
        CHANNELS 3 Zrotation Xrotation Yrotation
        JOINT RightLegRoll
        {
          OFFSET 0 23.0226 0
          CHANNELS 3 Zrotation Xrotation Yrotation
          JOINT RightFoot
          {
            OFFSET 0 19.1625 0
            CHANNELS 3 Zrotation Xrotation Yrotation
            JOINT RightToeBase
            {
              OFFSET 0 16.0188 0
              CHANNELS 3 Zrotation Xrotation Yrotation
              End Site
              {
                OFFSET 0.00678979 7.75782 -0.894206
              }
            }
          }
        }
      }
    }
  }
  JOINT LeftUpLeg
  {
    OFFSET 7.06048 -1.2947 -1.0861
    CHANNELS 3 Zrotation Xrotation Yrotation
    JOINT LeftUpLegRoll
    {
      OFFSET 0 18.5309 0
      CHANNELS 3 Zrotation Xrotation Yrotation
      JOINT LeftLeg
      {
        OFFSET 0 22.9475 0
        CHANNELS 3 Zrotation Xrotation Yrotation
        JOINT LeftLegRoll
        {
          OFFSET 0 23.2355 0
          CHANNELS 3 Zrotation Xrotation Yrotation
          JOINT LeftFoot
          {
            OFFSET 0 18.9496 0
            CHANNELS 3 Zrotation Xrotation Yrotation
            JOINT LeftToeBase
            {
              OFFSET 0 16.0188 0
              CHANNELS 3 Zrotation Xrotation Yrotation
              End Site
              {
                OFFSET -0.0304289 7.75782 -0.894207
              }
            }
          }
        }
      }
    }
  }
}
MOTION
Frames: 8
Frame Time: 0.00208333
50.5197 95.7234 7.12359 -0.526434 -5.57433 5.8313 0.0692585 -1.80244 0.06729 0.135326 0.397999 0.129243 0.13384 2.04307 0.126939 -1.16878 31.3222 -2.44341 5.68561 -4.44905 -2.12866 61.1329 1.43781 0.542279 118.64 55.1356 -38.9736 3.74332e-006 -7.45057e-007 -4.11992e-007 -153.749 82.3318 146.407 -7.08536e-006 1.52695e-006 -3.00102 8.03003 -4.95138 0.697651 -57.6068 -2.13084 1.20143 -127.899 63.214 60.2942 1.41131e-006 1.02549e-006 7.42011e-006 165.571 85.9935 -157.904 1.2879e-005 1.25332e-006 3 -8.03017 -4.95136 -0.697614 177.363 -5.04482 -2.29899 180 7.01514e-015 178.79 177.354 4.91167 179.602 3.0439e-006 -4.948e-006 0.0559459 -18.6473 67.7393 19.3152 8.13342 25.2328 -3.48643 -171.776 -0.337706 -0.659528 4.54188e-006 -4.6773e-006 -1.06866 -1.50475 -8.06888 0.29242 7.82736e-007 -6.7001e-007 0.0269317 16.605 68.0465 -19.5505 -8.13649 25.2327 3.48774 
50.5102 95.7229 7.13216 -0.523584 -5.58139 5.82891 0.0691787 -1.80071 0.0680482 0.134617 0.401461 0.130539 0.133114 2.04653 0.128236 -1.14888 31.3103 -2.45258 5.65017 -4.41945 -2.13638 61.1363 1.41281 0.527203 118.411 55.1687 -38.7619 3.74332e-006 -7.45057e-007 -4.11992e-007 -153.714 82.3473 146.385 -7.08536e-006 1.52695e-006 -3.00101 8.03003 -4.95138 0.697651 -57.5551 -2.12793 1.19443 -127.682 63.2289 60.063 1.41131e-006 1.02549e-006 7.42011e-006 165.479 86.0235 -157.827 1.2879e-005 1.25332e-006 3 -8.03017 -4.95136 -0.697614 177.358 -5.04375 -2.29515 180 7.01514e-015 178.789 177.353 4.92301 179.602 3.0439e-006 -4.948e-006 0.0559765 -18.6488 67.7412 19.3169 8.13342 25.2328 -3.48643 -171.78 -0.342858 -0.658607 4.54188e-006 -4.6773e-006 -1.06865 -1.5061 -8.07415 0.292162 7.82736e-007 -6.7001e-007 0.0270016 16.6093 68.0508 -19.5526 -8.13649 25.2327 3.48774 
50.5174 95.7244 7.12789 -0.5208 -5.58789 5.82591 0.069117 -1.79903 0.0687312 0.133988 0.404815 0.131668 0.132469 2.04989 0.129367 -1.13089 31.2976 -2.46085 5.61508 -4.38988 -2.14388 61.1391 1.38761 0.512066 118.178 55.2018 -38.5411 3.74332e-006 -7.45057e-007 -4.11992e-007 -153.679 82.3608 146.364 -7.08536e-006 1.52695e-006 -3.00101 8.03003 -4.95138 0.697651 -57.5046 -2.12583 1.18806 -127.448 63.2424 59.8147 1.41131e-006 1.02549e-006 7.42011e-006 165.377 86.0491 -157.74 1.2879e-005 1.25332e-006 3 -8.03017 -4.95136 -0.697614 177.353 -5.04181 -2.29138 180 7.01514e-015 178.789 177.353 4.93465 179.603 3.0439e-006 -4.948e-006 0.056007 -18.6503 67.743 19.3185 8.13342 25.2328 -3.48643 -171.785 -0.347578 -0.65761 4.54188e-006 -4.6773e-006 -1.06865 -1.50747 -8.0793 0.291893 7.82736e-007 -6.7001e-007 0.0270668 16.6137 68.0549 -19.5547 -8.13649 25.2327 3.48774 
50.5247 95.7244 7.12061 -0.518097 -5.59378 5.82227 0.0690572 -1.79741 0.0693076 0.133421 0.408065 0.132588 0.131889 2.05314 0.130288 -1.11493 31.2841 -2.46802 5.58056 -4.36048 -2.15099 61.1414 1.362 0.496772 117.94 55.2348 -38.3106 3.74332e-006 -7.45057e-007 -4.11992e-007 -153.643 82.3719 146.344 -7.08536e-006 1.52695e-006 -3.00101 8.03003 -4.95138 0.697651 -57.4556 -2.12482 1.18254 -127.196 63.2545 59.5483 1.41131e-006 1.02549e-006 7.42011e-006 165.267 86.0698 -157.643 1.2879e-005 1.25332e-006 3 -8.03017 -4.95136 -0.697614 177.348 -5.039 -2.28772 180 7.01514e-015 178.789 177.353 4.94654 179.603 3.0439e-006 -4.948e-006 0.0560375 -18.6517 67.7447 19.32 8.13342 25.2328 -3.48643 -171.789 -0.351917 -0.656548 4.54188e-006 -4.6773e-006 -1.06865 -1.50886 -8.08413 0.291616 7.82736e-007 -6.7001e-007 0.0271268 16.618 68.0588 -19.5567 -8.13649 25.2327 3.48774 
50.526 95.7246 7.12081 -0.51549 -5.599 5.81794 0.0689831 -1.79583 0.0697459 0.1329 0.411213 0.133255 0.131357 2.05628 0.130957 -1.10115 31.2696 -2.4739 5.54679 -4.33136 -2.15751 61.1428 1.33577 0.481225 117.698 55.2677 -38.0697 3.74332e-006 -7.45057e-007 -4.11992e-007 -153.607 82.3804 146.324 -7.08536e-006 1.52695e-006 -3.00101 8.03003 -4.95138 0.697651 -57.4083 -2.12516 1.17805 -126.925 63.2654 59.2629 1.41131e-006 1.02549e-006 7.42011e-006 165.148 86.085 -157.535 1.2879e-005 1.25332e-006 3 -8.03017 -4.95136 -0.697614 177.343 -5.0353 -2.28416 180 7.01514e-015 178.789 177.353 4.95859 179.603 3.0439e-006 -4.948e-006 0.0560678 -18.6531 67.7463 19.3215 8.13342 25.2328 -3.48643 -171.793 -0.355929 -0.655428 4.54188e-006 -4.6773e-006 -1.06867 -1.51029 -8.08846 0.291333 7.82736e-007 -6.7001e-007 0.0271807 16.6223 68.0624 -19.5586 -8.13649 25.2327 3.48774 
50.5302 95.7231 7.11456 -0.512995 -5.60352 5.81286 0.0688783 -1.79431 0.0700147 0.132407 0.414262 0.133626 0.130854 2.05933 0.131331 -1.08967 31.254 -2.47832 5.51398 -4.30265 -2.16328 61.1432 1.3087 0.46533 117.452 55.3006 -37.8178 3.74332e-006 -7.45057e-007 -4.11992e-007 -153.572 82.3856 146.307 -7.08536e-006 1.52695e-006 -3.00101 8.03003 -4.95138 0.697651 -57.363 -2.12713 1.17481 -126.634 63.275 58.9577 1.41131e-006 1.02549e-006 7.42011e-006 165.023 86.094 -157.419 1.2879e-005 1.25332e-006 3 -8.03017 -4.95136 -0.697614 177.338 -5.03069 -2.28075 180 7.01514e-015 178.789 177.353 4.97075 179.603 3.0439e-006 -4.948e-006 0.0560981 -18.6543 67.7478 19.3228 8.13342 25.2328 -3.48643 -171.797 -0.359665 -0.654263 4.54188e-006 -4.6773e-006 -1.06869 -1.51177 -8.09209 0.291045 7.82736e-007 -6.7001e-007 0.0272279 16.6264 68.0654 -19.5603 -8.13649 25.2327 3.48774 
50.5322 95.7208 7.11245 -0.510627 -5.60727 5.807 0.0687267 -1.79283 0.0700827 0.131924 0.417216 0.133658 0.130366 2.06229 0.131367 -1.08062 31.2374 -2.48107 5.48233 -4.27447 -2.16811 61.1422 1.28057 0.44899 117.203 55.3333 -37.5542 3.74332e-006 -7.45057e-007 -4.11992e-007 -153.536 82.3874 146.29 -7.08536e-006 1.52695e-006 -3.00101 8.03003 -4.95138 0.697651 -57.3199 -2.13102 1.173 -126.321 63.2834 58.6316 1.41131e-006 1.02549e-006 7.42011e-006 164.891 86.0965 -157.293 1.2879e-005 1.25332e-006 3 -8.03017 -4.95136 -0.697614 177.333 -5.02516 -2.2775 180 7.01514e-015 178.789 177.353 4.98296 179.603 3.0439e-006 -4.948e-006 0.0561283 -18.6554 67.7492 19.324 8.13342 25.2328 -3.48643 -171.802 -0.363178 -0.653059 4.54188e-006 -4.6773e-006 -1.06872 -1.5133 -8.09483 0.290755 7.82736e-007 -6.7001e-007 0.0272676 16.6301 68.0679 -19.5619 -8.13649 25.2327 3.48774 
50.5412 95.7233 7.12024 -0.508402 -5.61021 5.80031 0.068512 -1.7914 0.0699185 0.131435 0.420076 0.133306 0.129874 2.06515 0.131021 -1.07415 31.2195 -2.48198 5.45205 -4.24694 -2.17182 61.1398 1.25118 0.432109 116.949 55.3659 -37.2783 3.74332e-006 -7.45057e-007 -4.11992e-007 -153.5 82.3852 146.276 -7.08536e-006 1.52695e-006 -3.001 8.03003 -4.95138 0.697651 -57.2793 -2.1371 1.17283 -125.985 63.2907 58.2837 1.41131e-006 1.02549e-006 7.42011e-006 164.755 86.0916 -157.161 1.2879e-005 1.25332e-006 3 -8.03017 -4.95136 -0.697614 177.328 -5.0187 -2.27443 180 7.01514e-015 178.788 177.354 4.99514 179.603 3.0439e-006 -4.948e-006 0.0561584 -18.6564 67.7503 19.3251 8.13342 25.2328 -3.48643 -171.806 -0.36652 -0.651829 4.54188e-006 -4.6773e-006 -1.06877 -1.51491 -8.09648 0.290465 7.82736e-007 -6.7001e-007 0.0272991 16.6334 68.0696 -19.5632 -8.13649 25.2327 3.48774 
